<?xml version="1.0" encoding="utf-8"?>
<svg viewBox="210.535 210.648 90.064 49.168" xmlns="http://www.w3.org/2000/svg">
  <path d="M 237.503 220.794 L 237.503 221.65 Q 237.503 222.12 236.911 222.507 L 228.343 228.015 Q 228.241 228.076 228.088 228.076 Q 227.935 228.076 227.813 227.954 Q 227.691 227.832 227.691 227.648 L 227.691 224.343 Q 227.691 223.976 227.854 223.833 Q 228.017 223.69 228.058 223.67 Q 228.323 223.466 228.343 223.466 L 231.913 221.222 L 228.343 218.978 Q 228.262 218.978 228.048 218.784 Q 227.833 218.59 227.793 218.529 Q 227.691 218.264 227.691 218.101 L 227.691 214.796 Q 227.691 214.612 227.813 214.49 Q 227.935 214.368 228.088 214.368 Q 228.241 214.368 228.343 214.429 L 236.911 219.937 Q 237.503 220.324 237.503 220.794 Z" transform="matrix(1, 0, 0, 1, -12.790907, 4.870419)" style="fill: rgb(51, 51, 51); white-space: pre;"/>
  <path d="M 252.107 214.082 L 255.901 214.082 Q 256.125 214.082 256.289 214.245 Q 256.452 214.408 256.452 214.633 L 256.452 227.811 Q 256.452 228.036 256.289 228.199 Q 256.125 228.362 255.901 228.362 L 252.617 228.362 Q 252.127 228.362 251.801 227.934 L 247.353 222.262 L 247.353 227.811 Q 247.353 228.036 247.19 228.199 Q 247.027 228.362 246.803 228.362 L 243.008 228.362 Q 242.784 228.362 242.621 228.199 Q 242.457 228.036 242.457 227.811 L 242.457 214.633 Q 242.457 214.408 242.621 214.245 Q 242.784 214.082 243.008 214.082 L 246.313 214.082 Q 246.803 214.082 247.109 214.49 L 251.556 220.63 L 251.556 214.633 Q 251.556 214.408 251.719 214.245 Q 251.882 214.082 252.107 214.082 Z" transform="matrix(1, 0, 0, 1, -12.790907, 4.870419)" style="fill: rgb(51, 51, 51); white-space: pre;"/>
  <path d="M 265.323 224.384 L 273.463 224.384 Q 273.687 224.384 273.85 224.547 Q 274.014 224.71 274.014 224.935 L 274.014 227.811 Q 274.014 228.036 273.85 228.199 Q 273.687 228.362 273.463 228.362 L 260.57 228.362 Q 260.346 228.362 260.182 228.199 Q 260.019 228.036 260.019 227.811 L 260.019 214.633 Q 260.019 214.408 260.182 214.245 Q 260.346 214.082 260.57 214.082 L 273.259 214.082 Q 273.483 214.082 273.646 214.245 Q 273.81 214.408 273.81 214.633 L 273.81 217.509 Q 273.81 217.734 273.646 217.897 Q 273.483 218.06 273.259 218.06 L 265.323 218.06 L 265.323 219.345 L 272.137 219.345 Q 272.361 219.345 272.524 219.508 Q 272.688 219.672 272.688 219.896 L 272.688 222.548 Q 272.688 222.772 272.524 222.936 Q 272.361 223.099 272.137 223.099 L 265.323 223.099 Z" transform="matrix(1, 0, 0, 1, -12.790907, 4.870419)" style="fill: rgb(51, 51, 51); white-space: pre;"/>
  <path d="M 281.498 228.362 L 278.642 228.362 Q 278.254 228.362 277.999 228.127 Q 277.744 227.893 277.703 227.587 L 275.928 214.592 L 275.928 214.531 Q 275.928 214.347 276.061 214.215 Q 276.194 214.082 276.377 214.082 L 279.886 214.082 Q 280.294 214.082 280.549 214.327 Q 280.804 214.572 280.845 214.939 L 281.498 221.181 L 282.681 217.938 Q 282.742 217.734 282.977 217.54 Q 283.211 217.346 283.578 217.346 L 284.966 217.346 Q 285.333 217.346 285.567 217.54 Q 285.802 217.734 285.863 217.938 L 287.046 221.181 L 287.699 214.939 Q 287.74 214.572 287.995 214.327 Q 288.25 214.082 288.658 214.082 L 292.167 214.082 Q 292.35 214.082 292.483 214.215 Q 292.616 214.347 292.616 214.531 L 292.616 214.592 L 290.841 227.587 Q 290.8 227.893 290.545 228.127 Q 290.29 228.362 289.902 228.362 L 287.046 228.362 Q 286.679 228.362 286.445 228.178 Q 286.21 227.995 286.149 227.811 L 284.272 223.507 L 282.395 227.811 Q 282.334 227.995 282.099 228.178 Q 281.865 228.362 281.498 228.362 Z" transform="matrix(1, 0, 0, 1, -12.790907, 4.870419)" style="fill: rgb(51, 51, 51); white-space: pre;"/>
  <path d="M 237.503 241.194 L 237.503 242.05 Q 237.503 242.52 236.911 242.907 L 228.343 248.415 Q 228.241 248.476 228.088 248.476 Q 227.935 248.476 227.813 248.354 Q 227.691 248.232 227.691 248.048 L 227.691 244.743 Q 227.691 244.376 227.854 244.233 Q 228.017 244.09 228.058 244.07 Q 228.323 243.866 228.343 243.866 L 231.913 241.622 L 228.343 239.378 Q 228.262 239.378 228.048 239.184 Q 227.833 238.99 227.793 238.929 Q 227.691 238.664 227.691 238.501 L 227.691 235.196 Q 227.691 235.012 227.813 234.89 Q 227.935 234.768 228.088 234.768 Q 228.241 234.768 228.343 234.829 L 236.911 240.337 Q 237.503 240.724 237.503 241.194 Z" transform="matrix(1, 0, 0, 1, -12.790907, 4.870419)" style="fill: rgb(51, 51, 51); white-space: pre;"/>
  <path d="M 250.944 240.153 L 256.86 240.153 Q 257.084 240.153 257.247 240.316 Q 257.411 240.48 257.411 240.704 L 257.411 242.866 Q 257.411 245.967 255.299 247.467 Q 253.188 248.966 249.72 248.966 Q 246.252 248.966 244.14 247.467 Q 242.029 245.967 242.029 242.826 L 242.029 240.418 Q 242.029 238.848 242.631 237.644 Q 243.233 236.44 244.314 235.706 Q 246.435 234.278 249.72 234.278 Q 251.352 234.278 252.708 234.655 Q 254.065 235.033 254.871 235.594 Q 255.677 236.155 256.248 236.808 Q 257.247 237.95 257.247 238.827 Q 257.247 239.011 257.115 239.143 Q 256.982 239.276 256.799 239.276 L 252.188 239.276 Q 251.78 239.276 251.597 239.052 Q 250.964 238.256 249.873 238.256 Q 248.781 238.256 248.159 238.684 Q 247.537 239.113 247.537 239.786 L 247.537 243.254 Q 247.537 244.07 248.149 244.529 Q 248.761 244.988 249.873 244.988 Q 250.985 244.988 251.586 244.549 Q 252.188 244.111 252.209 243.519 L 250.944 243.519 Q 250.719 243.519 250.556 243.356 Q 250.393 243.193 250.393 242.968 L 250.393 240.704 Q 250.393 240.48 250.556 240.316 Q 250.719 240.153 250.944 240.153 Z" transform="matrix(1, 0, 0, 1, -12.790907, 4.870419)" style="fill: rgb(51, 51, 51); white-space: pre;"/>
  <path d="M 262.998 248.762 L 259.142 248.762 Q 258.958 248.762 258.826 248.629 Q 258.693 248.497 258.693 248.374 Q 258.693 248.252 258.714 248.191 L 263.161 235.155 Q 263.344 234.482 264.079 234.482 L 269.75 234.482 Q 270.484 234.482 270.668 235.155 L 275.115 248.191 Q 275.136 248.252 275.136 248.374 Q 275.136 248.497 275.003 248.629 Q 274.87 248.762 274.687 248.762 L 270.831 248.762 Q 270.178 248.762 269.913 248.068 L 269.403 246.64 L 264.426 246.64 L 263.916 248.068 Q 263.65 248.762 262.998 248.762 Z M 268.363 242.662 L 266.914 238.419 L 265.466 242.662 Z" transform="matrix(1, 0, 0, 1, -12.790907, 4.870419)" style="fill: rgb(51, 51, 51); white-space: pre;"/>
  <path d="M 287.74 234.482 L 291.473 234.482 Q 291.698 234.482 291.861 234.645 Q 292.024 234.808 292.024 235.033 L 292.024 248.211 Q 292.024 248.436 291.861 248.599 Q 291.698 248.762 291.473 248.762 L 287.781 248.762 Q 287.556 248.762 287.393 248.599 Q 287.23 248.436 287.23 248.211 L 287.23 241.887 L 285.741 244.825 Q 285.618 245.07 285.374 245.202 Q 285.129 245.335 284.884 245.335 L 283.497 245.335 Q 283.15 245.335 282.926 245.151 Q 282.701 244.968 282.64 244.825 L 281.151 241.887 L 281.151 248.211 Q 281.151 248.436 280.988 248.599 Q 280.824 248.762 280.6 248.762 L 276.908 248.762 Q 276.683 248.762 276.52 248.599 Q 276.357 248.436 276.357 248.211 L 276.357 235.033 Q 276.357 234.808 276.52 234.645 Q 276.683 234.482 276.908 234.482 L 280.641 234.482 Q 281.212 234.482 281.518 235.033 L 284.19 239.929 L 286.863 235.033 Q 287.169 234.482 287.74 234.482 Z" transform="matrix(1, 0, 0, 1, -12.790907, 4.870419)" style="fill: rgb(51, 51, 51); white-space: pre;"/>
  <path d="M 299.998 244.784 L 308.137 244.784 Q 308.362 244.784 308.525 244.947 Q 308.688 245.11 308.688 245.335 L 308.688 248.211 Q 308.688 248.436 308.525 248.599 Q 308.362 248.762 308.137 248.762 L 295.245 248.762 Q 295.02 248.762 294.857 248.599 Q 294.694 248.436 294.694 248.211 L 294.694 235.033 Q 294.694 234.808 294.857 234.645 Q 295.02 234.482 295.245 234.482 L 307.933 234.482 Q 308.158 234.482 308.321 234.645 Q 308.484 234.808 308.484 235.033 L 308.484 237.909 Q 308.484 238.134 308.321 238.297 Q 308.158 238.46 307.933 238.46 L 299.998 238.46 L 299.998 239.745 L 306.811 239.745 Q 307.036 239.745 307.199 239.908 Q 307.362 240.072 307.362 240.296 L 307.362 242.948 Q 307.362 243.172 307.199 243.336 Q 307.036 243.499 306.811 243.499 L 299.998 243.499 Z" transform="matrix(1, 0, 0, 1, -12.790907, 4.870419)" style="fill: rgb(51, 51, 51); white-space: pre;"/>
</svg>