<svg viewBox="-0.52 -0.52 14.04 14.04" xmlns="http://www.w3.org/2000/svg">
  <circle cx="1.5" cy="1.5" r="0.38" fill="currentColor"/>
  <circle cx="2.5" cy="1.5" r="0.38" fill="currentColor"/>
  <circle cx="3.5" cy="1.5" r="0.38" fill="currentColor"/>
  <circle cx="4.5" cy="1.5" r="0.38" fill="currentColor"/>
  <circle cx="5.5" cy="1.5" r="0.38" fill="currentColor"/>
  <circle cx="6.5" cy="1.5" r="0.38" fill="currentColor"/>
  <circle cx="7.5" cy="1.5" r="0.38" fill="currentColor"/>
  <circle cx="8.5" cy="1.5" r="0.38" fill="currentColor"/>
  <circle cx="9.5" cy="1.5" r="0.38" fill="currentColor"/>
  <circle cx="10.5" cy="1.5" r="0.38" fill="currentColor"/>
  <circle cx="11.5" cy="1.5" r="0.38" fill="currentColor"/>
  <circle cx="1.5" cy="2.5" r="0.38" fill="currentColor"/>
  <circle cx="11.5" cy="2.5" r="0.38" fill="currentColor"/>
  <circle cx="1.5" cy="3.5" r="0.38" fill="currentColor"/>
  <circle cx="11.5" cy="3.5" r="0.38" fill="currentColor"/>
  <circle cx="1.5" cy="4.5" r="0.38" fill="currentColor"/>
  <circle cx="11.5" cy="4.5" r="0.38" fill="currentColor"/>
  <circle cx="1.5" cy="5.5" r="0.38" fill="currentColor"/>
  <circle cx="11.5" cy="5.5" r="0.38" fill="currentColor"/>
  <circle cx="1.5" cy="6.5" r="0.38" fill="currentColor"/>
  <circle cx="11.5" cy="6.5" r="0.38" fill="currentColor"/>
  <circle cx="1.5" cy="7.5" r="0.38" fill="currentColor"/>
  <circle cx="11.5" cy="7.5" r="0.38" fill="currentColor"/>
  <circle cx="1.5" cy="8.5" r="0.38" fill="currentColor"/>
  <circle cx="11.5" cy="8.5" r="0.38" fill="currentColor"/>
  <circle cx="1.5" cy="9.5" r="0.38" fill="currentColor"/>
  <circle cx="11.5" cy="9.5" r="0.38" fill="currentColor"/>
  <circle cx="1.5" cy="10.5" r="0.38" fill="currentColor"/>
  <circle cx="11.5" cy="10.5" r="0.38" fill="currentColor"/>
  <circle cx="1.5" cy="11.5" r="0.38" fill="currentColor"/>
  <circle cx="2.5" cy="11.5" r="0.38" fill="currentColor"/>
  <circle cx="3.5" cy="11.5" r="0.38" fill="currentColor"/>
  <circle cx="4.5" cy="11.5" r="0.38" fill="currentColor"/>
  <circle cx="5.5" cy="11.5" r="0.38" fill="currentColor"/>
  <circle cx="6.5" cy="11.5" r="0.38" fill="currentColor"/>
  <circle cx="7.5" cy="11.5" r="0.38" fill="currentColor"/>
  <circle cx="8.5" cy="11.5" r="0.38" fill="currentColor"/>
  <circle cx="9.5" cy="11.5" r="0.38" fill="currentColor"/>
  <circle cx="10.5" cy="11.5" r="0.38" fill="currentColor"/>
  <circle cx="11.5" cy="11.5" r="0.38" fill="currentColor"/>
</svg>