<svg xmlns="http://www.w3.org/2000/svg" viewBox="0 0 200 200" fill="none" stroke="currentColor" stroke-width="8" stroke-linecap="round" stroke-linejoin="round">
  <!-- teeth: 8 square bumps around a central disc -->
  <path d="M100 18 L112 18 L112 42 L88 42 L88 18 Z"/>
  <path d="M100 182 L112 182 L112 158 L88 158 L88 182 Z"/>
  <path d="M18 100 L18 112 L42 112 L42 88 L18 88 Z"/>
  <path d="M182 100 L182 112 L158 112 L158 88 L182 88 Z"/>
  <path d="M42 42 L50 34 L66 50 L50 66 L34 50 Z"/>
  <path d="M158 158 L150 166 L134 150 L150 134 L166 150 Z"/>
  <path d="M42 158 L34 150 L50 134 L66 150 L50 166 Z"/>
  <path d="M158 42 L166 50 L150 66 L134 50 L150 34 Z"/>
  <!-- outer ring -->
  <circle cx="100" cy="100" r="55"/>
  <!-- inner hole -->
  <circle cx="100" cy="100" r="22"/>
</svg>
