<svg viewBox="-0.6 -0.6 199.2 277.2" xmlns="http://www.w3.org/2000/svg">
  <circle cx="57" cy="3" r="1.7" fill="currentColor"/>
  <circle cx="63" cy="3" r="2.5" fill="currentColor"/>
  <circle cx="69" cy="3" r="2.6" fill="currentColor"/>
  <circle cx="75" cy="3" r="2.6" fill="currentColor"/>
  <circle cx="81" cy="3" r="2.6" fill="currentColor"/>
  <circle cx="87" cy="3" r="2.6" fill="currentColor"/>
  <circle cx="93" cy="3" r="2.6" fill="currentColor"/>
  <circle cx="99" cy="3" r="2.6" fill="currentColor"/>
  <circle cx="105" cy="3" r="2.6" fill="currentColor"/>
  <circle cx="111" cy="3" r="2.6" fill="currentColor"/>
  <circle cx="117" cy="3" r="2.6" fill="currentColor"/>
  <circle cx="123" cy="3" r="2.6" fill="currentColor"/>
  <circle cx="129" cy="3" r="2.6" fill="currentColor"/>
  <circle cx="135" cy="3" r="2.5" fill="currentColor"/>
  <circle cx="141" cy="3" r="1.9" fill="currentColor"/>
  <circle cx="147" cy="3" r="0.7" fill="currentColor"/>
  <circle cx="45" cy="9" r="1.3" fill="currentColor"/>
  <circle cx="51" cy="9" r="2.5" fill="currentColor"/>
  <circle cx="147" cy="9" r="2.5" fill="currentColor"/>
  <circle cx="153" cy="9" r="1.6" fill="currentColor"/>
  <circle cx="39" cy="15" r="1.9" fill="currentColor"/>
  <circle cx="45" cy="15" r="2.6" fill="currentColor"/>
  <circle cx="159" cy="15" r="2.1" fill="currentColor"/>
  <circle cx="33" cy="21" r="2" fill="currentColor"/>
  <circle cx="165" cy="21" r="2.2" fill="currentColor"/>
  <circle cx="27" cy="27" r="1.9" fill="currentColor"/>
  <circle cx="171" cy="27" r="2.1" fill="currentColor"/>
  <circle cx="21" cy="33" r="1.5" fill="currentColor"/>
  <circle cx="177" cy="33" r="1.5" fill="currentColor"/>
  <circle cx="21" cy="39" r="2.5" fill="currentColor"/>
  <circle cx="177" cy="39" r="2.5" fill="currentColor"/>
  <circle cx="183" cy="39" r="0.7" fill="currentColor"/>
  <circle cx="15" cy="45" r="1.7" fill="currentColor"/>
  <circle cx="183" cy="45" r="1.9" fill="currentColor"/>
  <circle cx="15" cy="51" r="2.5" fill="currentColor"/>
  <circle cx="183" cy="51" r="2.6" fill="currentColor"/>
  <circle cx="189" cy="51" r="0.5" fill="currentColor"/>
  <circle cx="9" cy="57" r="1.4" fill="currentColor"/>
  <circle cx="189" cy="57" r="1.5" fill="currentColor"/>
  <circle cx="9" cy="63" r="2.1" fill="currentColor"/>
  <circle cx="189" cy="63" r="2.3" fill="currentColor"/>
  <circle cx="9" cy="69" r="2.4" fill="currentColor"/>
  <circle cx="189" cy="69" r="2.5" fill="currentColor"/>
  <circle cx="9" cy="75" r="2.5" fill="currentColor"/>
  <circle cx="189" cy="75" r="2.6" fill="currentColor"/>
  <circle cx="195" cy="75" r="0.5" fill="currentColor"/>
  <circle cx="3" cy="81" r="0.5" fill="currentColor"/>
  <circle cx="9" cy="81" r="2.6" fill="currentColor"/>
  <circle cx="189" cy="81" r="2.6" fill="currentColor"/>
  <circle cx="195" cy="81" r="1.2" fill="currentColor"/>
  <circle cx="3" cy="87" r="0.5" fill="currentColor"/>
  <circle cx="9" cy="87" r="2.6" fill="currentColor"/>
  <circle cx="189" cy="87" r="2.6" fill="currentColor"/>
  <circle cx="195" cy="87" r="1.2" fill="currentColor"/>
  <circle cx="3" cy="93" r="0.5" fill="currentColor"/>
  <circle cx="9" cy="93" r="2.6" fill="currentColor"/>
  <circle cx="189" cy="93" r="2.6" fill="currentColor"/>
  <circle cx="195" cy="93" r="0.8" fill="currentColor"/>
  <circle cx="9" cy="99" r="2.5" fill="currentColor"/>
  <circle cx="189" cy="99" r="2.6" fill="currentColor"/>
  <circle cx="195" cy="99" r="0.5" fill="currentColor"/>
  <circle cx="9" cy="105" r="2.2" fill="currentColor"/>
  <circle cx="129" cy="105" r="2.6" fill="currentColor"/>
  <circle cx="135" cy="105" r="2.6" fill="currentColor"/>
  <circle cx="189" cy="105" r="2.4" fill="currentColor"/>
  <circle cx="9" cy="111" r="1.7" fill="currentColor"/>
  <circle cx="57" cy="111" r="2.4" fill="currentColor"/>
  <circle cx="63" cy="111" r="2.1" fill="currentColor"/>
  <circle cx="69" cy="111" r="1.9" fill="currentColor"/>
  <circle cx="75" cy="111" r="2.3" fill="currentColor"/>
  <circle cx="123" cy="111" r="1.9" fill="currentColor"/>
  <circle cx="129" cy="111" r="1.3" fill="currentColor"/>
  <circle cx="135" cy="111" r="1.2" fill="currentColor"/>
  <circle cx="141" cy="111" r="1.8" fill="currentColor"/>
  <circle cx="147" cy="111" r="2.5" fill="currentColor"/>
  <circle cx="189" cy="111" r="1.9" fill="currentColor"/>
  <circle cx="9" cy="117" r="0.7" fill="currentColor"/>
  <circle cx="15" cy="117" r="2.6" fill="currentColor"/>
  <circle cx="51" cy="117" r="1.4" fill="currentColor"/>
  <circle cx="81" cy="117" r="1.5" fill="currentColor"/>
  <circle cx="117" cy="117" r="1.5" fill="currentColor"/>
  <circle cx="153" cy="117" r="2.2" fill="currentColor"/>
  <circle cx="183" cy="117" r="2.6" fill="currentColor"/>
  <circle cx="189" cy="117" r="0.8" fill="currentColor"/>
  <circle cx="15" cy="123" r="2.1" fill="currentColor"/>
  <circle cx="45" cy="123" r="2.1" fill="currentColor"/>
  <circle cx="81" cy="123" r="0.7" fill="currentColor"/>
  <circle cx="87" cy="123" r="2.6" fill="currentColor"/>
  <circle cx="117" cy="123" r="2.1" fill="currentColor"/>
  <circle cx="153" cy="123" r="1.1" fill="currentColor"/>
  <circle cx="159" cy="123" r="2.6" fill="currentColor"/>
  <circle cx="183" cy="123" r="2.1" fill="currentColor"/>
  <circle cx="15" cy="129" r="0.7" fill="currentColor"/>
  <circle cx="21" cy="129" r="2.6" fill="currentColor"/>
  <circle cx="51" cy="129" r="1.5" fill="currentColor"/>
  <circle cx="69" cy="129" r="0.7" fill="currentColor"/>
  <circle cx="75" cy="129" r="1.7" fill="currentColor"/>
  <circle cx="81" cy="129" r="2.5" fill="currentColor"/>
  <circle cx="123" cy="129" r="2.4" fill="currentColor"/>
  <circle cx="129" cy="129" r="1.6" fill="currentColor"/>
  <circle cx="135" cy="129" r="0.8" fill="currentColor"/>
  <circle cx="141" cy="129" r="0.5" fill="currentColor"/>
  <circle cx="147" cy="129" r="1.4" fill="currentColor"/>
  <circle cx="153" cy="129" r="2.3" fill="currentColor"/>
  <circle cx="177" cy="129" r="2.6" fill="currentColor"/>
  <circle cx="183" cy="129" r="0.8" fill="currentColor"/>
  <circle cx="21" cy="135" r="1.9" fill="currentColor"/>
  <circle cx="57" cy="135" r="2.5" fill="currentColor"/>
  <circle cx="63" cy="135" r="2.5" fill="currentColor"/>
  <circle cx="69" cy="135" r="2.6" fill="currentColor"/>
  <circle cx="135" cy="135" r="2.6" fill="currentColor"/>
  <circle cx="141" cy="135" r="2.6" fill="currentColor"/>
  <circle cx="177" cy="135" r="2.2" fill="currentColor"/>
  <circle cx="21" cy="141" r="2.2" fill="currentColor"/>
  <circle cx="99" cy="141" r="2.3" fill="currentColor"/>
  <circle cx="177" cy="141" r="2.3" fill="currentColor"/>
  <circle cx="21" cy="147" r="2.5" fill="currentColor"/>
  <circle cx="93" cy="147" r="2.6" fill="currentColor"/>
  <circle cx="99" cy="147" r="0.5" fill="currentColor"/>
  <circle cx="105" cy="147" r="2.5" fill="currentColor"/>
  <circle cx="177" cy="147" r="2.6" fill="currentColor"/>
  <circle cx="183" cy="147" r="0.8" fill="currentColor"/>
  <circle cx="15" cy="153" r="1.1" fill="currentColor"/>
  <circle cx="21" cy="153" r="2.6" fill="currentColor"/>
  <circle cx="93" cy="153" r="2.3" fill="currentColor"/>
  <circle cx="105" cy="153" r="2.3" fill="currentColor"/>
  <circle cx="183" cy="153" r="1.8" fill="currentColor"/>
  <circle cx="15" cy="159" r="1.2" fill="currentColor"/>
  <circle cx="21" cy="159" r="2.6" fill="currentColor"/>
  <circle cx="93" cy="159" r="2.2" fill="currentColor"/>
  <circle cx="99" cy="159" r="0.7" fill="currentColor"/>
  <circle cx="105" cy="159" r="2.3" fill="currentColor"/>
  <circle cx="183" cy="159" r="2.1" fill="currentColor"/>
  <circle cx="21" cy="165" r="2.3" fill="currentColor"/>
  <circle cx="27" cy="165" r="2.6" fill="currentColor"/>
  <circle cx="33" cy="165" r="2.6" fill="currentColor"/>
  <circle cx="99" cy="165" r="2.6" fill="currentColor"/>
  <circle cx="177" cy="165" r="2.6" fill="currentColor"/>
  <circle cx="183" cy="165" r="1.3" fill="currentColor"/>
  <circle cx="27" cy="171" r="0.8" fill="currentColor"/>
  <circle cx="33" cy="171" r="1.3" fill="currentColor"/>
  <circle cx="39" cy="171" r="1.6" fill="currentColor"/>
  <circle cx="45" cy="171" r="1.9" fill="currentColor"/>
  <circle cx="51" cy="171" r="2.1" fill="currentColor"/>
  <circle cx="147" cy="171" r="2.5" fill="currentColor"/>
  <circle cx="153" cy="171" r="2.3" fill="currentColor"/>
  <circle cx="159" cy="171" r="2.1" fill="currentColor"/>
  <circle cx="165" cy="171" r="1.7" fill="currentColor"/>
  <circle cx="171" cy="171" r="1.4" fill="currentColor"/>
  <circle cx="177" cy="171" r="0.5" fill="currentColor"/>
  <circle cx="57" cy="177" r="2.3" fill="currentColor"/>
  <circle cx="141" cy="177" r="2.6" fill="currentColor"/>
  <circle cx="147" cy="177" r="0.5" fill="currentColor"/>
  <circle cx="57" cy="183" r="2.4" fill="currentColor"/>
  <circle cx="141" cy="183" r="2.6" fill="currentColor"/>
  <circle cx="147" cy="183" r="0.7" fill="currentColor"/>
  <circle cx="57" cy="189" r="2.5" fill="currentColor"/>
  <circle cx="141" cy="189" r="2.6" fill="currentColor"/>
  <circle cx="147" cy="189" r="1.2" fill="currentColor"/>
  <circle cx="57" cy="195" r="1.5" fill="currentColor"/>
  <circle cx="63" cy="195" r="2.5" fill="currentColor"/>
  <circle cx="135" cy="195" r="2.6" fill="currentColor"/>
  <circle cx="141" cy="195" r="2.2" fill="currentColor"/>
  <circle cx="21" cy="201" r="1" fill="currentColor"/>
  <circle cx="27" cy="201" r="0.5" fill="currentColor"/>
  <circle cx="63" cy="201" r="0.5" fill="currentColor"/>
  <circle cx="69" cy="201" r="1.7" fill="currentColor"/>
  <circle cx="75" cy="201" r="2.3" fill="currentColor"/>
  <circle cx="81" cy="201" r="2.5" fill="currentColor"/>
  <circle cx="87" cy="201" r="2.6" fill="currentColor"/>
  <circle cx="93" cy="201" r="2.6" fill="currentColor"/>
  <circle cx="99" cy="201" r="2.6" fill="currentColor"/>
  <circle cx="105" cy="201" r="2.6" fill="currentColor"/>
  <circle cx="111" cy="201" r="2.6" fill="currentColor"/>
  <circle cx="117" cy="201" r="2.5" fill="currentColor"/>
  <circle cx="123" cy="201" r="2.3" fill="currentColor"/>
  <circle cx="129" cy="201" r="1.9" fill="currentColor"/>
  <circle cx="135" cy="201" r="1" fill="currentColor"/>
  <circle cx="171" cy="201" r="0.5" fill="currentColor"/>
  <circle cx="177" cy="201" r="1" fill="currentColor"/>
  <circle cx="183" cy="201" r="0.5" fill="currentColor"/>
  <circle cx="9" cy="207" r="1.6" fill="currentColor"/>
  <circle cx="15" cy="207" r="2.5" fill="currentColor"/>
  <circle cx="21" cy="207" r="2.6" fill="currentColor"/>
  <circle cx="27" cy="207" r="2.6" fill="currentColor"/>
  <circle cx="33" cy="207" r="1.9" fill="currentColor"/>
  <circle cx="87" cy="207" r="0.5" fill="currentColor"/>
  <circle cx="93" cy="207" r="1" fill="currentColor"/>
  <circle cx="99" cy="207" r="1.2" fill="currentColor"/>
  <circle cx="105" cy="207" r="1.1" fill="currentColor"/>
  <circle cx="111" cy="207" r="0.5" fill="currentColor"/>
  <circle cx="165" cy="207" r="1.7" fill="currentColor"/>
  <circle cx="171" cy="207" r="2.6" fill="currentColor"/>
  <circle cx="177" cy="207" r="2.6" fill="currentColor"/>
  <circle cx="183" cy="207" r="2.6" fill="currentColor"/>
  <circle cx="189" cy="207" r="1.9" fill="currentColor"/>
  <circle cx="3" cy="213" r="1.1" fill="currentColor"/>
  <circle cx="9" cy="213" r="2.6" fill="currentColor"/>
  <circle cx="39" cy="213" r="2.1" fill="currentColor"/>
  <circle cx="45" cy="213" r="1.4" fill="currentColor"/>
  <circle cx="51" cy="213" r="0.5" fill="currentColor"/>
  <circle cx="153" cy="213" r="1.2" fill="currentColor"/>
  <circle cx="159" cy="213" r="2" fill="currentColor"/>
  <circle cx="195" cy="213" r="1.5" fill="currentColor"/>
  <circle cx="3" cy="219" r="1.9" fill="currentColor"/>
  <circle cx="51" cy="219" r="2.6" fill="currentColor"/>
  <circle cx="57" cy="219" r="2.3" fill="currentColor"/>
  <circle cx="63" cy="219" r="1.7" fill="currentColor"/>
  <circle cx="69" cy="219" r="0.8" fill="currentColor"/>
  <circle cx="129" cy="219" r="0.7" fill="currentColor"/>
  <circle cx="135" cy="219" r="1.5" fill="currentColor"/>
  <circle cx="141" cy="219" r="2.2" fill="currentColor"/>
  <circle cx="147" cy="219" r="2.5" fill="currentColor"/>
  <circle cx="153" cy="219" r="2.6" fill="currentColor"/>
  <circle cx="195" cy="219" r="2.2" fill="currentColor"/>
  <circle cx="3" cy="225" r="1.9" fill="currentColor"/>
  <circle cx="69" cy="225" r="2.6" fill="currentColor"/>
  <circle cx="75" cy="225" r="2.5" fill="currentColor"/>
  <circle cx="81" cy="225" r="1.9" fill="currentColor"/>
  <circle cx="87" cy="225" r="1.2" fill="currentColor"/>
  <circle cx="111" cy="225" r="1" fill="currentColor"/>
  <circle cx="117" cy="225" r="1.9" fill="currentColor"/>
  <circle cx="123" cy="225" r="2.4" fill="currentColor"/>
  <circle cx="129" cy="225" r="2.6" fill="currentColor"/>
  <circle cx="195" cy="225" r="2.2" fill="currentColor"/>
  <circle cx="3" cy="231" r="0.8" fill="currentColor"/>
  <circle cx="9" cy="231" r="2.6" fill="currentColor"/>
  <circle cx="87" cy="231" r="2.6" fill="currentColor"/>
  <circle cx="93" cy="231" r="2.5" fill="currentColor"/>
  <circle cx="99" cy="231" r="2.3" fill="currentColor"/>
  <circle cx="105" cy="231" r="2.5" fill="currentColor"/>
  <circle cx="111" cy="231" r="2.6" fill="currentColor"/>
  <circle cx="195" cy="231" r="1.4" fill="currentColor"/>
  <circle cx="9" cy="237" r="1.5" fill="currentColor"/>
  <circle cx="15" cy="237" r="2.5" fill="currentColor"/>
  <circle cx="21" cy="237" r="2.6" fill="currentColor"/>
  <circle cx="27" cy="237" r="2.6" fill="currentColor"/>
  <circle cx="33" cy="237" r="2.4" fill="currentColor"/>
  <circle cx="39" cy="237" r="2.6" fill="currentColor"/>
  <circle cx="159" cy="237" r="2.6" fill="currentColor"/>
  <circle cx="165" cy="237" r="2.5" fill="currentColor"/>
  <circle cx="171" cy="237" r="2.5" fill="currentColor"/>
  <circle cx="177" cy="237" r="2.6" fill="currentColor"/>
  <circle cx="183" cy="237" r="2.6" fill="currentColor"/>
  <circle cx="189" cy="237" r="1.7" fill="currentColor"/>
  <circle cx="21" cy="243" r="0.5" fill="currentColor"/>
  <circle cx="27" cy="243" r="0.5" fill="currentColor"/>
  <circle cx="39" cy="243" r="0.7" fill="currentColor"/>
  <circle cx="45" cy="243" r="1.6" fill="currentColor"/>
  <circle cx="153" cy="243" r="1.7" fill="currentColor"/>
  <circle cx="159" cy="243" r="0.8" fill="currentColor"/>
  <circle cx="177" cy="243" r="0.5" fill="currentColor"/>
  <circle cx="183" cy="243" r="0.5" fill="currentColor"/>
  <circle cx="9" cy="249" r="0.5" fill="currentColor"/>
  <circle cx="15" cy="249" r="2" fill="currentColor"/>
  <circle cx="21" cy="249" r="2.3" fill="currentColor"/>
  <circle cx="27" cy="249" r="2.1" fill="currentColor"/>
  <circle cx="33" cy="249" r="1.7" fill="currentColor"/>
  <circle cx="39" cy="249" r="2.2" fill="currentColor"/>
  <circle cx="159" cy="249" r="2.3" fill="currentColor"/>
  <circle cx="165" cy="249" r="1.8" fill="currentColor"/>
  <circle cx="171" cy="249" r="2" fill="currentColor"/>
  <circle cx="177" cy="249" r="2.3" fill="currentColor"/>
  <circle cx="183" cy="249" r="2.1" fill="currentColor"/>
  <circle cx="189" cy="249" r="0.8" fill="currentColor"/>
  <circle cx="9" cy="255" r="2.4" fill="currentColor"/>
  <circle cx="99" cy="255" r="2.6" fill="currentColor"/>
  <circle cx="189" cy="255" r="2.5" fill="currentColor"/>
  <circle cx="195" cy="255" r="0.8" fill="currentColor"/>
  <circle cx="3" cy="261" r="1.6" fill="currentColor"/>
  <circle cx="75" cy="261" r="2.6" fill="currentColor"/>
  <circle cx="81" cy="261" r="2.5" fill="currentColor"/>
  <circle cx="87" cy="261" r="2.1" fill="currentColor"/>
  <circle cx="93" cy="261" r="1.5" fill="currentColor"/>
  <circle cx="99" cy="261" r="0.5" fill="currentColor"/>
  <circle cx="105" cy="261" r="1.4" fill="currentColor"/>
  <circle cx="111" cy="261" r="2" fill="currentColor"/>
  <circle cx="117" cy="261" r="2.5" fill="currentColor"/>
  <circle cx="123" cy="261" r="2.6" fill="currentColor"/>
  <circle cx="195" cy="261" r="1.9" fill="currentColor"/>
  <circle cx="3" cy="267" r="2" fill="currentColor"/>
  <circle cx="57" cy="267" r="2.6" fill="currentColor"/>
  <circle cx="63" cy="267" r="2.4" fill="currentColor"/>
  <circle cx="69" cy="267" r="1.9" fill="currentColor"/>
  <circle cx="75" cy="267" r="1.1" fill="currentColor"/>
  <circle cx="123" cy="267" r="1" fill="currentColor"/>
  <circle cx="129" cy="267" r="1.8" fill="currentColor"/>
  <circle cx="135" cy="267" r="2.3" fill="currentColor"/>
  <circle cx="141" cy="267" r="2.6" fill="currentColor"/>
  <circle cx="195" cy="267" r="2.3" fill="currentColor"/>
  <circle cx="3" cy="273" r="1.5" fill="currentColor"/>
  <circle cx="9" cy="273" r="2.6" fill="currentColor"/>
  <circle cx="15" cy="273" r="2.6" fill="currentColor"/>
  <circle cx="21" cy="273" r="2.6" fill="currentColor"/>
  <circle cx="27" cy="273" r="2.6" fill="currentColor"/>
  <circle cx="33" cy="273" r="2.6" fill="currentColor"/>
  <circle cx="39" cy="273" r="2.5" fill="currentColor"/>
  <circle cx="45" cy="273" r="2.2" fill="currentColor"/>
  <circle cx="51" cy="273" r="1.6" fill="currentColor"/>
  <circle cx="57" cy="273" r="0.7" fill="currentColor"/>
  <circle cx="141" cy="273" r="0.5" fill="currentColor"/>
  <circle cx="147" cy="273" r="1.5" fill="currentColor"/>
  <circle cx="153" cy="273" r="2.1" fill="currentColor"/>
  <circle cx="159" cy="273" r="2.5" fill="currentColor"/>
  <circle cx="165" cy="273" r="2.6" fill="currentColor"/>
  <circle cx="171" cy="273" r="2.6" fill="currentColor"/>
  <circle cx="177" cy="273" r="2.6" fill="currentColor"/>
  <circle cx="183" cy="273" r="2.6" fill="currentColor"/>
  <circle cx="189" cy="273" r="2.6" fill="currentColor"/>
  <circle cx="195" cy="273" r="1.9" fill="currentColor"/>
</svg>