<svg viewBox="0 0 18 25" xmlns="http://www.w3.org/2000/svg">
  <defs>
    <pattern id="dot-grid" width="0.75" height="0.75" patternUnits="userSpaceOnUse">
      <circle cx="0.375" cy="0.375" r="0.325" fill="currentColor"/>
    </pattern>
  </defs>
  <path d="M15.6,12.9c-0.2-0.6-0.1-0.9,0.2-1.4c1.6-2.6,1.5-5.1,0-7.7S12,0.1,8.7,0C8.4,0,7.8,0.1,7.3,0.2C1.6,1.3-0.6,7.8,2.4,11.9
		c0.1,0.2,0.1,0.3,0.1,0.5c-0.2,0.5-0.3,0.8-0.4,1.3C1.9,14.5,2,14.7,3,14.8c0.6,0.1,1.3,0.1,2,0.2c0.5,0.1,0.6,0.2,0.6,0.6
		c0,0.4,0,0.7-0.1,1.1c-0.1,0.3,0,0.5,0.3,0.6C6.5,17.8,8,18,9,18c0.8,0,2.4-0.2,3.4-0.7c0.2-0.1,0.3-0.3,0.2-0.5
		c-0.1-0.4-0.1-0.7-0.1-1c0-0.6,0.1-0.7,0.7-0.7c0.7-0.1,1.6-0.2,2.3-0.3c0.5-0.1,0.6-0.3,0.6-0.6C15.9,13.7,15.8,13.2,15.6,12.9z
		 M4.2,12.1c-0.7-0.5-0.8-1.1-0.3-1.7s1.3-0.9,2.3-0.9c0.2,0,0.9,0.2,1.3,0.4c0.6,0.4,0.8,1.1,0.4,1.7C7,12.4,5.2,12.8,4.2,12.1z
		 M10,14.7c-0.4,0-0.6,0.4-1,0.4c-0.4,0-0.7-0.3-1.1-0.4c-0.1,0,0.2-1.7,0.6-2.2c0.3-0.5,0.7-0.5,1,0C9.8,13,10.1,14.7,10,14.7z
		 M13.6,12.2c-1,0.4-2.4,0.1-3.2-0.6c-0.7-0.7-0.6-1.7,0.4-2c0.1,0,0.2-0.1,0.4-0.1c0.6-0.2,1.3-0.2,1.9,0.1c0.4,0.1,0.6,0.3,1,0.6
		C14.8,10.9,14.6,11.9,13.6,12.2z" fill="url(#dot-grid)" />
  <line x1="2" y1="20" x2="16" y2="24" stroke-width="1.4" stroke-linecap="round" fill="url(#dot-grid)" />
  <line x1="2" y1="24" x2="16" y2="20" stroke-width="1.4" stroke-linecap="round" fill="url(#dot-grid)" />
  <circle cx="2" cy="20" r="1.2" fill="url(#dot-grid)" />
  <circle cx="16" cy="24" r="1.2" fill="url(#dot-grid)" />
  <circle cx="2" cy="24" r="1.2" fill="url(#dot-grid)" />
  <circle cx="16" cy="20" r="1.2" fill="url(#dot-grid)" />
</svg>