<svg viewBox="-0.6 -0.6 55.2 49.2" xmlns="http://www.w3.org/2000/svg">
  <!-- top edge -->
  <circle cx="9" cy="3" r="2.6" fill="currentColor"/>
  <circle cx="15" cy="3" r="2.6" fill="currentColor"/>
  <circle cx="21" cy="3" r="2.6" fill="currentColor"/>
  <circle cx="27" cy="3" r="2.6" fill="currentColor"/>
  <circle cx="33" cy="3" r="2.6" fill="currentColor"/>
  <circle cx="39" cy="3" r="2.6" fill="currentColor"/>
  <circle cx="45" cy="3" r="2.6" fill="currentColor"/>
  <!-- right edge -->
  <circle cx="51" cy="3" r="2.6" fill="currentColor"/>
  <circle cx="51" cy="9" r="2.6" fill="currentColor"/>
  <circle cx="51" cy="15" r="2.6" fill="currentColor"/>
  <circle cx="51" cy="21" r="2.6" fill="currentColor"/>
  <circle cx="51" cy="27" r="2.6" fill="currentColor"/>
  <!-- bottom edge -->
  <circle cx="51" cy="33" r="2.6" fill="currentColor"/>
  <circle cx="45" cy="33" r="2.6" fill="currentColor"/>
  <circle cx="39" cy="33" r="2.6" fill="currentColor"/>
  <circle cx="33" cy="33" r="2.6" fill="currentColor"/>
  <circle cx="27" cy="33" r="2.6" fill="currentColor"/>
  <circle cx="21" cy="33" r="2.6" fill="currentColor"/>
  <circle cx="15" cy="33" r="2.6" fill="currentColor"/>
  <!-- left edge -->
  <circle cx="3" cy="33" r="2.6" fill="currentColor"/>
  <circle cx="3" cy="27" r="2.6" fill="currentColor"/>
  <circle cx="3" cy="21" r="2.6" fill="currentColor"/>
  <circle cx="3" cy="15" r="2.6" fill="currentColor"/>
  <circle cx="3" cy="9" r="2.6" fill="currentColor"/>
  <circle cx="3" cy="3" r="2.6" fill="currentColor"/>
  <!-- tail -->
  <circle cx="9" cy="39" r="2.6" fill="currentColor"/>
  <circle cx="3" cy="45" r="2.6" fill="currentColor"/>
</svg>
