<svg viewBox="11.4 11.4 175.2 175.2" xmlns="http://www.w3.org/2000/svg">
  <circle cx="81" cy="15" r="0.7" fill="currentColor"/>
  <circle cx="87" cy="15" r="1.2" fill="currentColor"/>
  <circle cx="93" cy="15" r="1.6" fill="currentColor"/>
  <circle cx="99" cy="15" r="1.6" fill="currentColor"/>
  <circle cx="105" cy="15" r="1.6" fill="currentColor"/>
  <circle cx="111" cy="15" r="1.3" fill="currentColor"/>
  <circle cx="117" cy="15" r="0.8" fill="currentColor"/>
  <circle cx="63" cy="21" r="0.7" fill="currentColor"/>
  <circle cx="69" cy="21" r="1.9" fill="currentColor"/>
  <circle cx="75" cy="21" r="2.5" fill="currentColor"/>
  <circle cx="81" cy="21" r="2.6" fill="currentColor"/>
  <circle cx="87" cy="21" r="2.6" fill="currentColor"/>
  <circle cx="111" cy="21" r="2.6" fill="currentColor"/>
  <circle cx="117" cy="21" r="2.6" fill="currentColor"/>
  <circle cx="123" cy="21" r="2.5" fill="currentColor"/>
  <circle cx="129" cy="21" r="2" fill="currentColor"/>
  <circle cx="135" cy="21" r="0.8" fill="currentColor"/>
  <circle cx="57" cy="27" r="1.9" fill="currentColor"/>
  <circle cx="63" cy="27" r="2.6" fill="currentColor"/>
  <circle cx="135" cy="27" r="2.6" fill="currentColor"/>
  <circle cx="141" cy="27" r="2.1" fill="currentColor"/>
  <circle cx="147" cy="27" r="0.7" fill="currentColor"/>
  <circle cx="45" cy="33" r="1.1" fill="currentColor"/>
  <circle cx="51" cy="33" r="2.4" fill="currentColor"/>
  <circle cx="147" cy="33" r="2.5" fill="currentColor"/>
  <circle cx="153" cy="33" r="1.4" fill="currentColor"/>
  <circle cx="39" cy="39" r="1.2" fill="currentColor"/>
  <circle cx="45" cy="39" r="2.5" fill="currentColor"/>
  <circle cx="159" cy="39" r="1.5" fill="currentColor"/>
  <circle cx="33" cy="45" r="1.1" fill="currentColor"/>
  <circle cx="39" cy="45" r="2.5" fill="currentColor"/>
  <circle cx="165" cy="45" r="1.4" fill="currentColor"/>
  <circle cx="33" cy="51" r="2.4" fill="currentColor"/>
  <circle cx="165" cy="51" r="2.5" fill="currentColor"/>
  <circle cx="171" cy="51" r="0.8" fill="currentColor"/>
  <circle cx="27" cy="57" r="1.9" fill="currentColor"/>
  <circle cx="171" cy="57" r="2.2" fill="currentColor"/>
  <circle cx="21" cy="63" r="0.7" fill="currentColor"/>
  <circle cx="27" cy="63" r="2.6" fill="currentColor"/>
  <circle cx="171" cy="63" r="2.6" fill="currentColor"/>
  <circle cx="177" cy="63" r="1.2" fill="currentColor"/>
  <circle cx="21" cy="69" r="1.9" fill="currentColor"/>
  <circle cx="177" cy="69" r="2.2" fill="currentColor"/>
  <circle cx="21" cy="75" r="2.5" fill="currentColor"/>
  <circle cx="177" cy="75" r="2.6" fill="currentColor"/>
  <circle cx="183" cy="75" r="0.5" fill="currentColor"/>
  <circle cx="15" cy="81" r="0.7" fill="currentColor"/>
  <circle cx="21" cy="81" r="2.6" fill="currentColor"/>
  <circle cx="177" cy="81" r="2.6" fill="currentColor"/>
  <circle cx="183" cy="81" r="1.3" fill="currentColor"/>
  <circle cx="15" cy="87" r="1.2" fill="currentColor"/>
  <circle cx="21" cy="87" r="2.6" fill="currentColor"/>
  <circle cx="183" cy="87" r="1.7" fill="currentColor"/>
  <circle cx="15" cy="93" r="1.6" fill="currentColor"/>
  <circle cx="183" cy="93" r="2.1" fill="currentColor"/>
  <circle cx="15" cy="99" r="1.6" fill="currentColor"/>
  <circle cx="183" cy="99" r="2.1" fill="currentColor"/>
  <circle cx="15" cy="105" r="1.6" fill="currentColor"/>
  <circle cx="183" cy="105" r="2.1" fill="currentColor"/>
  <circle cx="15" cy="111" r="1.3" fill="currentColor"/>
  <circle cx="21" cy="111" r="2.6" fill="currentColor"/>
  <circle cx="183" cy="111" r="1.7" fill="currentColor"/>
  <circle cx="15" cy="117" r="0.8" fill="currentColor"/>
  <circle cx="21" cy="117" r="2.6" fill="currentColor"/>
  <circle cx="183" cy="117" r="1.4" fill="currentColor"/>
  <circle cx="21" cy="123" r="2.5" fill="currentColor"/>
  <circle cx="177" cy="123" r="2.6" fill="currentColor"/>
  <circle cx="183" cy="123" r="0.5" fill="currentColor"/>
  <circle cx="21" cy="129" r="2" fill="currentColor"/>
  <circle cx="177" cy="129" r="2.3" fill="currentColor"/>
  <circle cx="21" cy="135" r="0.8" fill="currentColor"/>
  <circle cx="27" cy="135" r="2.6" fill="currentColor"/>
  <circle cx="177" cy="135" r="1.5" fill="currentColor"/>
  <circle cx="27" cy="141" r="2.1" fill="currentColor"/>
  <circle cx="171" cy="141" r="2.3" fill="currentColor"/>
  <circle cx="27" cy="147" r="0.7" fill="currentColor"/>
  <circle cx="33" cy="147" r="2.5" fill="currentColor"/>
  <circle cx="165" cy="147" r="2.6" fill="currentColor"/>
  <circle cx="171" cy="147" r="1.1" fill="currentColor"/>
  <circle cx="33" cy="153" r="1.4" fill="currentColor"/>
  <circle cx="165" cy="153" r="1.7" fill="currentColor"/>
  <circle cx="39" cy="159" r="1.5" fill="currentColor"/>
  <circle cx="159" cy="159" r="1.7" fill="currentColor"/>
  <circle cx="45" cy="165" r="1.4" fill="currentColor"/>
  <circle cx="51" cy="165" r="2.5" fill="currentColor"/>
  <circle cx="147" cy="165" r="2.6" fill="currentColor"/>
  <circle cx="153" cy="165" r="1.7" fill="currentColor"/>
  <circle cx="51" cy="171" r="0.8" fill="currentColor"/>
  <circle cx="57" cy="171" r="2.2" fill="currentColor"/>
  <circle cx="63" cy="171" r="2.6" fill="currentColor"/>
  <circle cx="141" cy="171" r="2.3" fill="currentColor"/>
  <circle cx="147" cy="171" r="1.1" fill="currentColor"/>
  <circle cx="63" cy="177" r="1.2" fill="currentColor"/>
  <circle cx="69" cy="177" r="2.2" fill="currentColor"/>
  <circle cx="75" cy="177" r="2.6" fill="currentColor"/>
  <circle cx="81" cy="177" r="2.6" fill="currentColor"/>
  <circle cx="123" cy="177" r="2.6" fill="currentColor"/>
  <circle cx="129" cy="177" r="2.3" fill="currentColor"/>
  <circle cx="135" cy="177" r="1.5" fill="currentColor"/>
  <circle cx="75" cy="183" r="0.5" fill="currentColor"/>
  <circle cx="81" cy="183" r="1.3" fill="currentColor"/>
  <circle cx="87" cy="183" r="1.7" fill="currentColor"/>
  <circle cx="93" cy="183" r="2.1" fill="currentColor"/>
  <circle cx="99" cy="183" r="2.1" fill="currentColor"/>
  <circle cx="105" cy="183" r="2.1" fill="currentColor"/>
  <circle cx="111" cy="183" r="1.7" fill="currentColor"/>
  <circle cx="117" cy="183" r="1.4" fill="currentColor"/>
  <circle cx="123" cy="183" r="0.5" fill="currentColor"/>
</svg>