<svg viewBox="5.4 17.4 187.2 181.2" xmlns="http://www.w3.org/2000/svg">
  <circle cx="81" cy="21" r="0.5" fill="currentColor"/>
  <circle cx="87" cy="21" r="1.2" fill="currentColor"/>
  <circle cx="93" cy="21" r="1.6" fill="currentColor"/>
  <circle cx="99" cy="21" r="1.6" fill="currentColor"/>
  <circle cx="105" cy="21" r="1.6" fill="currentColor"/>
  <circle cx="111" cy="21" r="1.3" fill="currentColor"/>
  <circle cx="117" cy="21" r="0.7" fill="currentColor"/>
  <circle cx="69" cy="27" r="1.3" fill="currentColor"/>
  <circle cx="75" cy="27" r="2.3" fill="currentColor"/>
  <circle cx="81" cy="27" r="2.6" fill="currentColor"/>
  <circle cx="87" cy="27" r="2.6" fill="currentColor"/>
  <circle cx="111" cy="27" r="2.6" fill="currentColor"/>
  <circle cx="117" cy="27" r="2.6" fill="currentColor"/>
  <circle cx="123" cy="27" r="2.4" fill="currentColor"/>
  <circle cx="129" cy="27" r="1.5" fill="currentColor"/>
  <circle cx="63" cy="33" r="1.9" fill="currentColor"/>
  <circle cx="69" cy="33" r="2.6" fill="currentColor"/>
  <circle cx="135" cy="33" r="2.2" fill="currentColor"/>
  <circle cx="57" cy="39" r="1.8" fill="currentColor"/>
  <circle cx="141" cy="39" r="2.1" fill="currentColor"/>
  <circle cx="51" cy="45" r="0.8" fill="currentColor"/>
  <circle cx="57" cy="45" r="2.6" fill="currentColor"/>
  <circle cx="147" cy="45" r="1.4" fill="currentColor"/>
  <circle cx="51" cy="51" r="1.9" fill="currentColor"/>
  <circle cx="147" cy="51" r="2.2" fill="currentColor"/>
  <circle cx="51" cy="57" r="2.5" fill="currentColor"/>
  <circle cx="147" cy="57" r="2.6" fill="currentColor"/>
  <circle cx="153" cy="57" r="0.5" fill="currentColor"/>
  <circle cx="45" cy="63" r="0.5" fill="currentColor"/>
  <circle cx="51" cy="63" r="2.6" fill="currentColor"/>
  <circle cx="147" cy="63" r="2.6" fill="currentColor"/>
  <circle cx="153" cy="63" r="1.1" fill="currentColor"/>
  <circle cx="45" cy="69" r="1.1" fill="currentColor"/>
  <circle cx="51" cy="69" r="2.6" fill="currentColor"/>
  <circle cx="153" cy="69" r="1.5" fill="currentColor"/>
  <circle cx="45" cy="75" r="1.2" fill="currentColor"/>
  <circle cx="51" cy="75" r="2.6" fill="currentColor"/>
  <circle cx="153" cy="75" r="1.6" fill="currentColor"/>
  <circle cx="45" cy="81" r="1.2" fill="currentColor"/>
  <circle cx="51" cy="81" r="2.6" fill="currentColor"/>
  <circle cx="153" cy="81" r="1.6" fill="currentColor"/>
  <circle cx="45" cy="87" r="1.2" fill="currentColor"/>
  <circle cx="51" cy="87" r="2.6" fill="currentColor"/>
  <circle cx="153" cy="87" r="1.6" fill="currentColor"/>
  <circle cx="45" cy="93" r="1.2" fill="currentColor"/>
  <circle cx="51" cy="93" r="2.6" fill="currentColor"/>
  <circle cx="153" cy="93" r="1.6" fill="currentColor"/>
  <circle cx="45" cy="99" r="1.2" fill="currentColor"/>
  <circle cx="51" cy="99" r="2.6" fill="currentColor"/>
  <circle cx="153" cy="99" r="1.6" fill="currentColor"/>
  <circle cx="45" cy="105" r="1.2" fill="currentColor"/>
  <circle cx="51" cy="105" r="2.6" fill="currentColor"/>
  <circle cx="153" cy="105" r="1.6" fill="currentColor"/>
  <circle cx="45" cy="111" r="1.1" fill="currentColor"/>
  <circle cx="51" cy="111" r="2.6" fill="currentColor"/>
  <circle cx="153" cy="111" r="1.5" fill="currentColor"/>
  <circle cx="51" cy="117" r="2.5" fill="currentColor"/>
  <circle cx="147" cy="117" r="2.6" fill="currentColor"/>
  <circle cx="153" cy="117" r="0.7" fill="currentColor"/>
  <circle cx="51" cy="123" r="0.7" fill="currentColor"/>
  <circle cx="57" cy="123" r="2.1" fill="currentColor"/>
  <circle cx="141" cy="123" r="2.2" fill="currentColor"/>
  <circle cx="147" cy="123" r="1" fill="currentColor"/>
  <circle cx="57" cy="129" r="0.5" fill="currentColor"/>
  <circle cx="63" cy="129" r="2.6" fill="currentColor"/>
  <circle cx="135" cy="129" r="2.6" fill="currentColor"/>
  <circle cx="141" cy="129" r="1.1" fill="currentColor"/>
  <circle cx="21" cy="135" r="1.5" fill="currentColor"/>
  <circle cx="27" cy="135" r="1.5" fill="currentColor"/>
  <circle cx="33" cy="135" r="0.5" fill="currentColor"/>
  <circle cx="63" cy="135" r="2.5" fill="currentColor"/>
  <circle cx="135" cy="135" r="2.6" fill="currentColor"/>
  <circle cx="141" cy="135" r="0.5" fill="currentColor"/>
  <circle cx="171" cy="135" r="1.5" fill="currentColor"/>
  <circle cx="177" cy="135" r="1.5" fill="currentColor"/>
  <circle cx="183" cy="135" r="0.5" fill="currentColor"/>
  <circle cx="15" cy="141" r="2.2" fill="currentColor"/>
  <circle cx="33" cy="141" r="2.4" fill="currentColor"/>
  <circle cx="39" cy="141" r="0.5" fill="currentColor"/>
  <circle cx="63" cy="141" r="2.2" fill="currentColor"/>
  <circle cx="135" cy="141" r="2.4" fill="currentColor"/>
  <circle cx="165" cy="141" r="2.2" fill="currentColor"/>
  <circle cx="183" cy="141" r="2.4" fill="currentColor"/>
  <circle cx="189" cy="141" r="0.5" fill="currentColor"/>
  <circle cx="9" cy="147" r="1.1" fill="currentColor"/>
  <circle cx="15" cy="147" r="2.6" fill="currentColor"/>
  <circle cx="39" cy="147" r="1.5" fill="currentColor"/>
  <circle cx="63" cy="147" r="1.7" fill="currentColor"/>
  <circle cx="135" cy="147" r="2.1" fill="currentColor"/>
  <circle cx="159" cy="147" r="1.1" fill="currentColor"/>
  <circle cx="165" cy="147" r="2.6" fill="currentColor"/>
  <circle cx="189" cy="147" r="1.5" fill="currentColor"/>
  <circle cx="9" cy="153" r="1" fill="currentColor"/>
  <circle cx="15" cy="153" r="2.6" fill="currentColor"/>
  <circle cx="39" cy="153" r="2.5" fill="currentColor"/>
  <circle cx="45" cy="153" r="2.3" fill="currentColor"/>
  <circle cx="51" cy="153" r="1.7" fill="currentColor"/>
  <circle cx="57" cy="153" r="1" fill="currentColor"/>
  <circle cx="69" cy="153" r="1.5" fill="currentColor"/>
  <circle cx="81" cy="153" r="2.6" fill="currentColor"/>
  <circle cx="87" cy="153" r="2.6" fill="currentColor"/>
  <circle cx="93" cy="153" r="2.6" fill="currentColor"/>
  <circle cx="99" cy="153" r="2.6" fill="currentColor"/>
  <circle cx="105" cy="153" r="2.6" fill="currentColor"/>
  <circle cx="111" cy="153" r="2.6" fill="currentColor"/>
  <circle cx="117" cy="153" r="2.6" fill="currentColor"/>
  <circle cx="129" cy="153" r="1.6" fill="currentColor"/>
  <circle cx="141" cy="153" r="0.8" fill="currentColor"/>
  <circle cx="147" cy="153" r="1.6" fill="currentColor"/>
  <circle cx="153" cy="153" r="2.2" fill="currentColor"/>
  <circle cx="159" cy="153" r="2.5" fill="currentColor"/>
  <circle cx="189" cy="153" r="1.5" fill="currentColor"/>
  <circle cx="15" cy="159" r="2" fill="currentColor"/>
  <circle cx="21" cy="159" r="2.6" fill="currentColor"/>
  <circle cx="27" cy="159" r="2.6" fill="currentColor"/>
  <circle cx="33" cy="159" r="2.2" fill="currentColor"/>
  <circle cx="39" cy="159" r="0.7" fill="currentColor"/>
  <circle cx="45" cy="159" r="1.5" fill="currentColor"/>
  <circle cx="51" cy="159" r="2.2" fill="currentColor"/>
  <circle cx="57" cy="159" r="2.5" fill="currentColor"/>
  <circle cx="63" cy="159" r="2.5" fill="currentColor"/>
  <circle cx="75" cy="159" r="1.6" fill="currentColor"/>
  <circle cx="81" cy="159" r="1" fill="currentColor"/>
  <circle cx="87" cy="159" r="1.2" fill="currentColor"/>
  <circle cx="93" cy="159" r="1.2" fill="currentColor"/>
  <circle cx="99" cy="159" r="1.2" fill="currentColor"/>
  <circle cx="105" cy="159" r="1.2" fill="currentColor"/>
  <circle cx="111" cy="159" r="1.2" fill="currentColor"/>
  <circle cx="117" cy="159" r="1" fill="currentColor"/>
  <circle cx="123" cy="159" r="1.5" fill="currentColor"/>
  <circle cx="135" cy="159" r="2.5" fill="currentColor"/>
  <circle cx="141" cy="159" r="2.5" fill="currentColor"/>
  <circle cx="147" cy="159" r="2.2" fill="currentColor"/>
  <circle cx="153" cy="159" r="1.7" fill="currentColor"/>
  <circle cx="159" cy="159" r="0.8" fill="currentColor"/>
  <circle cx="165" cy="159" r="2" fill="currentColor"/>
  <circle cx="171" cy="159" r="2.6" fill="currentColor"/>
  <circle cx="177" cy="159" r="2.6" fill="currentColor"/>
  <circle cx="183" cy="159" r="2.2" fill="currentColor"/>
  <circle cx="21" cy="165" r="1" fill="currentColor"/>
  <circle cx="27" cy="165" r="1.1" fill="currentColor"/>
  <circle cx="63" cy="165" r="1" fill="currentColor"/>
  <circle cx="69" cy="165" r="1.7" fill="currentColor"/>
  <circle cx="75" cy="165" r="2.2" fill="currentColor"/>
  <circle cx="81" cy="165" r="2.5" fill="currentColor"/>
  <circle cx="87" cy="165" r="2.5" fill="currentColor"/>
  <circle cx="93" cy="165" r="2" fill="currentColor"/>
  <circle cx="99" cy="165" r="1.5" fill="currentColor"/>
  <circle cx="105" cy="165" r="1.9" fill="currentColor"/>
  <circle cx="111" cy="165" r="2.4" fill="currentColor"/>
  <circle cx="117" cy="165" r="2.6" fill="currentColor"/>
  <circle cx="123" cy="165" r="2.3" fill="currentColor"/>
  <circle cx="129" cy="165" r="1.8" fill="currentColor"/>
  <circle cx="135" cy="165" r="1.1" fill="currentColor"/>
  <circle cx="171" cy="165" r="1" fill="currentColor"/>
  <circle cx="177" cy="165" r="1.1" fill="currentColor"/>
  <circle cx="75" cy="171" r="1" fill="currentColor"/>
  <circle cx="81" cy="171" r="1.8" fill="currentColor"/>
  <circle cx="93" cy="171" r="2.6" fill="currentColor"/>
  <circle cx="99" cy="171" r="2.5" fill="currentColor"/>
  <circle cx="105" cy="171" r="2.6" fill="currentColor"/>
  <circle cx="117" cy="171" r="1.9" fill="currentColor"/>
  <circle cx="123" cy="171" r="1.2" fill="currentColor"/>
  <circle cx="15" cy="177" r="1.1" fill="currentColor"/>
  <circle cx="21" cy="177" r="2.2" fill="currentColor"/>
  <circle cx="27" cy="177" r="2.3" fill="currentColor"/>
  <circle cx="33" cy="177" r="1.4" fill="currentColor"/>
  <circle cx="51" cy="177" r="0.8" fill="currentColor"/>
  <circle cx="57" cy="177" r="1.6" fill="currentColor"/>
  <circle cx="63" cy="177" r="2.2" fill="currentColor"/>
  <circle cx="69" cy="177" r="2.5" fill="currentColor"/>
  <circle cx="75" cy="177" r="2.5" fill="currentColor"/>
  <circle cx="81" cy="177" r="2.1" fill="currentColor"/>
  <circle cx="87" cy="177" r="1.5" fill="currentColor"/>
  <circle cx="93" cy="177" r="0.7" fill="currentColor"/>
  <circle cx="105" cy="177" r="0.5" fill="currentColor"/>
  <circle cx="111" cy="177" r="1.4" fill="currentColor"/>
  <circle cx="117" cy="177" r="1.9" fill="currentColor"/>
  <circle cx="123" cy="177" r="2.5" fill="currentColor"/>
  <circle cx="129" cy="177" r="2.5" fill="currentColor"/>
  <circle cx="135" cy="177" r="2.3" fill="currentColor"/>
  <circle cx="141" cy="177" r="1.7" fill="currentColor"/>
  <circle cx="147" cy="177" r="1" fill="currentColor"/>
  <circle cx="165" cy="177" r="1.1" fill="currentColor"/>
  <circle cx="171" cy="177" r="2.2" fill="currentColor"/>
  <circle cx="177" cy="177" r="2.3" fill="currentColor"/>
  <circle cx="183" cy="177" r="1.4" fill="currentColor"/>
  <circle cx="9" cy="183" r="0.5" fill="currentColor"/>
  <circle cx="15" cy="183" r="2.5" fill="currentColor"/>
  <circle cx="39" cy="183" r="2.1" fill="currentColor"/>
  <circle cx="45" cy="183" r="2.5" fill="currentColor"/>
  <circle cx="51" cy="183" r="2.5" fill="currentColor"/>
  <circle cx="57" cy="183" r="2.2" fill="currentColor"/>
  <circle cx="63" cy="183" r="1.7" fill="currentColor"/>
  <circle cx="69" cy="183" r="0.8" fill="currentColor"/>
  <circle cx="129" cy="183" r="0.7" fill="currentColor"/>
  <circle cx="135" cy="183" r="1.5" fill="currentColor"/>
  <circle cx="141" cy="183" r="2.2" fill="currentColor"/>
  <circle cx="147" cy="183" r="2.5" fill="currentColor"/>
  <circle cx="153" cy="183" r="2.5" fill="currentColor"/>
  <circle cx="159" cy="183" r="2.2" fill="currentColor"/>
  <circle cx="165" cy="183" r="2.5" fill="currentColor"/>
  <circle cx="183" cy="183" r="2.6" fill="currentColor"/>
  <circle cx="189" cy="183" r="1" fill="currentColor"/>
  <circle cx="9" cy="189" r="1.2" fill="currentColor"/>
  <circle cx="15" cy="189" r="2.6" fill="currentColor"/>
  <circle cx="39" cy="189" r="2.1" fill="currentColor"/>
  <circle cx="45" cy="189" r="1.1" fill="currentColor"/>
  <circle cx="153" cy="189" r="1" fill="currentColor"/>
  <circle cx="159" cy="189" r="1.9" fill="currentColor"/>
  <circle cx="189" cy="189" r="1.6" fill="currentColor"/>
  <circle cx="9" cy="195" r="0.7" fill="currentColor"/>
  <circle cx="15" cy="195" r="2.6" fill="currentColor"/>
  <circle cx="21" cy="195" r="2.6" fill="currentColor"/>
  <circle cx="27" cy="195" r="2.6" fill="currentColor"/>
  <circle cx="33" cy="195" r="2.6" fill="currentColor"/>
  <circle cx="39" cy="195" r="1.2" fill="currentColor"/>
  <circle cx="159" cy="195" r="0.7" fill="currentColor"/>
  <circle cx="165" cy="195" r="2.6" fill="currentColor"/>
  <circle cx="171" cy="195" r="2.6" fill="currentColor"/>
  <circle cx="177" cy="195" r="2.6" fill="currentColor"/>
  <circle cx="183" cy="195" r="2.6" fill="currentColor"/>
  <circle cx="189" cy="195" r="1.2" fill="currentColor"/>
</svg>