<svg viewBox="-2 -2 68 52" xmlns="http://www.w3.org/2000/svg">
  <circle cx="32" cy="0" r="1.7" fill="currentColor"/>
  <circle cx="30" cy="3" r="1.7" fill="currentColor"/>
  <circle cx="28" cy="6" r="1.7" fill="currentColor"/>
  <circle cx="26" cy="9" r="1.7" fill="currentColor"/>
  <circle cx="24" cy="12" r="1.7" fill="currentColor"/>
  <circle cx="22" cy="15" r="1.7" fill="currentColor"/>
  <circle cx="20" cy="18" r="1.7" fill="currentColor"/>
  <circle cx="18" cy="21" r="1.7" fill="currentColor"/>
  <circle cx="16" cy="24" r="1.7" fill="currentColor"/>
  <circle cx="14" cy="27" r="1.7" fill="currentColor"/>
  <circle cx="12" cy="30" r="1.7" fill="currentColor"/>
  <circle cx="10" cy="33" r="1.7" fill="currentColor"/>
  <circle cx="8" cy="36" r="1.7" fill="currentColor"/>
  <circle cx="6" cy="39" r="1.7" fill="currentColor"/>
  <circle cx="4" cy="42" r="1.7" fill="currentColor"/>
  <circle cx="2" cy="45" r="1.7" fill="currentColor"/>
  <circle cx="0" cy="48" r="1.7" fill="currentColor"/>
  <circle cx="34" cy="3" r="1.7" fill="currentColor"/>
  <circle cx="36" cy="6" r="1.7" fill="currentColor"/>
  <circle cx="38" cy="9" r="1.7" fill="currentColor"/>
  <circle cx="40" cy="12" r="1.7" fill="currentColor"/>
  <circle cx="42" cy="15" r="1.7" fill="currentColor"/>
  <circle cx="44" cy="18" r="1.7" fill="currentColor"/>
  <circle cx="46" cy="21" r="1.7" fill="currentColor"/>
  <circle cx="48" cy="24" r="1.7" fill="currentColor"/>
  <circle cx="50" cy="27" r="1.7" fill="currentColor"/>
  <circle cx="52" cy="30" r="1.7" fill="currentColor"/>
  <circle cx="54" cy="33" r="1.7" fill="currentColor"/>
  <circle cx="56" cy="36" r="1.7" fill="currentColor"/>
  <circle cx="58" cy="39" r="1.7" fill="currentColor"/>
  <circle cx="60" cy="42" r="1.7" fill="currentColor"/>
  <circle cx="62" cy="45" r="1.7" fill="currentColor"/>
  <circle cx="64" cy="48" r="1.7" fill="currentColor"/>
  <circle cx="4" cy="48" r="1.7" fill="currentColor"/>
  <circle cx="8" cy="48" r="1.7" fill="currentColor"/>
  <circle cx="12" cy="48" r="1.7" fill="currentColor"/>
  <circle cx="16" cy="48" r="1.7" fill="currentColor"/>
  <circle cx="20" cy="48" r="1.7" fill="currentColor"/>
  <circle cx="24" cy="48" r="1.7" fill="currentColor"/>
  <circle cx="28" cy="48" r="1.7" fill="currentColor"/>
  <circle cx="32" cy="48" r="1.7" fill="currentColor"/>
  <circle cx="36" cy="48" r="1.7" fill="currentColor"/>
  <circle cx="40" cy="48" r="1.7" fill="currentColor"/>
  <circle cx="44" cy="48" r="1.7" fill="currentColor"/>
  <circle cx="48" cy="48" r="1.7" fill="currentColor"/>
  <circle cx="52" cy="48" r="1.7" fill="currentColor"/>
  <circle cx="56" cy="48" r="1.7" fill="currentColor"/>
  <circle cx="60" cy="48" r="1.7" fill="currentColor"/>
  <circle cx="32" cy="18" r="1.7" fill="currentColor"/>
  <circle cx="32" cy="22" r="1.7" fill="currentColor"/>
  <circle cx="32" cy="26" r="1.7" fill="currentColor"/>
  <circle cx="32" cy="30" r="1.7" fill="currentColor"/>
  <circle cx="32" cy="39" r="1.7" fill="currentColor"/>
</svg>